<?xml version="1.0" encoding="UTF-8" standalone="no"?>
<svg
   xmlns:dc="http://purl.org/dc/elements/1.1/"
   xmlns:cc="http://creativecommons.org/ns#"
   xmlns:rdf="http://www.w3.org/1999/02/22-rdf-syntax-ns#"
   xmlns:svg="http://www.w3.org/2000/svg"
   xmlns="http://www.w3.org/2000/svg"
   xmlns:sodipodi="http://sodipodi.sourceforge.net/DTD/sodipodi-0.dtd"
   xmlns:inkscape="http://www.inkscape.org/namespaces/inkscape"
   aria-hidden="true"
   focusable="false"
   data-prefix="fas"
   data-icon="hand-holding"
   class="svg-inline--fa fa-hand-holding fa-w-18"
   role="img"
   viewBox="0 0 898.73773 672.79663"
   version="1.1"
   id="svg997"
   sodipodi:docname="wgss.svg"
   width="898.73773"
   height="672.79663"
   inkscape:version="1.0.2 (e86c870879, 2021-01-15)">
  <metadata
     id="metadata1003">
    <rdf:RDF>
      <cc:Work
         rdf:about="">
        <dc:format>image/svg+xml</dc:format>
        <dc:type
           rdf:resource="http://purl.org/dc/dcmitype/StillImage" />
        <dc:title></dc:title>
      </cc:Work>
    </rdf:RDF>
  </metadata>
  <defs
     id="defs1001">
    <style
       id="style1143">.a{fill:#88171a;}.b{fill:#231f20;}</style>
    <style
       id="style1428">.a{fill:#88171a;}.b{fill:#231f20;}</style>
  </defs>
  <sodipodi:namedview
     pagecolor="#565656"
     bordercolor="#666666"
     borderopacity="1"
     objecttolerance="10"
     gridtolerance="10"
     guidetolerance="10"
     inkscape:pageopacity="0"
     inkscape:pageshadow="2"
     inkscape:window-width="1916"
     inkscape:window-height="1026"
     id="namedview999"
     showgrid="false"
     fit-margin-top="0"
     fit-margin-left="0"
     fit-margin-right="0"
     fit-margin-bottom="0"
     inkscape:zoom="0.76464844"
     inkscape:cx="429.85505"
     inkscape:cy="398.22066"
     inkscape:window-x="0"
     inkscape:window-y="34"
     inkscape:window-maximized="1"
     inkscape:current-layer="svg997"
     inkscape:document-rotation="0"
     inkscape:pagecheckerboard="true" />
  <path
     fill="currentColor"
     d="m 679.4679,488.89665 c -11.8,-10.7 -30.2,-10 -42.6,0 l -92.4,73.9 c -11.3,9.1 -25.4,14 -40,14 h -118.3 c -8.8,0 -16,-7.2 -16,-16 0,-8.8 7.2,-16 16,-16 h 78.3 c 15.9,0 30.7,-10.9 33.3,-26.6 3.3,-20 -12.1,-37.4 -31.6,-37.4 h -160 c -27,0 -53.1,9.3 -74.1,26.3 l -46.5,37.7 h -55.4 c -8.8,0 -16,7.2 -16,16 v 96 c 0,8.8 7.2,16 16,16 h 356.8 c 14.5,0 28.6,-4.9 40,-14 l 151.2,-121 c 15.2,-12.1 16.4,-35.3 1.3,-48.9 z"
     id="path995"
     style="stroke:none;fill:#ffffff;fill-opacity:1" />
  <path
     style="fill:none;stroke:#ffffff;stroke-width:50;stroke-linecap:round;stroke-linejoin:miter;stroke-miterlimit:4;stroke-dasharray:none;stroke-opacity:1"
     d="M 25,444.99822 H 873.73771"
     id="path1005" />
  <path
     style="fill:#ffffff;fill-opacity:1;stroke-width:37.7953;stroke-linecap:round;stroke-miterlimit:4;stroke-dasharray:none"
     id="path1007"
     sodipodi:type="arc"
     sodipodi:cx="449.36884"
     sodipodi:cy="409.1998"
     sodipodi:rx="342.86221"
     sodipodi:ry="342.86221"
     sodipodi:start="3.1415927"
     sodipodi:end="0"
     sodipodi:arc-type="arc"
     d="M 106.50662,409.1998 A 342.86221,342.86221 0 0 1 449.36884,66.337585 342.86221,342.86221 0 0 1 792.23105,409.1998"
     sodipodi:open="true" />
  <circle
     style="fill:#ffffff;fill-opacity:1;stroke-width:37.7953;stroke-linecap:round;stroke-miterlimit:4;stroke-dasharray:none"
     id="path1011"
     cx="449.36884"
     cy="41.066612"
     r="41.066612" />
  <path
     class="a"
     d="m 410.7069,192.81106 c 28.96866,-17.72263 65.97832,-6.89073 79.84548,19.76088 2.62818,5.05101 2.9622,12.82681 1.29774,18.12604 -5.74664,18.29396 -19.31502,28.55367 -37.93903,32.91194 5.4905,-4.70058 9.86113,-10.03098 11.2518,-17.39546 1.4653,-7.05799 -0.12756,-14.40637 -4.38384,-20.22412 -6.78064,-9.31522 -18.9117,-13.01198 -29.73493,-9.06128 -11.46606,4.35355 -17.74677,14.81776 -16.61473,27.68125 1.05174,11.94858 10.11785,19.69235 27.08097,22.63389 -2.53526,1.34185 -4.48789,2.33008 -6.39836,3.39437 -7.77057,4.25735 -14.5328,10.13875 -19.82649,17.24395 -1.7216,2.3243 -2.90526,2.51152 -5.52698,0.90829 -34.10382,-20.85526 -36.29551,-73.19514 0.94795,-95.97959 z m -25.52527,128.86646 c -5.47863,1.39067 -10.7876,3.44937 -16.38793,5.28619 2.73936,-18.48215 24.38261,-35.50317 42.68526,-33.56144 -5.30255,7.30471 -8.39808,15.97735 -8.91922,24.98869 -6.08191,1.12006 -11.81348,1.87359 -17.37811,3.28608 z m 116.5714,-180.44971 c 5.41398,0.19892 10.83779,0.11669 16.25573,0.24492 1.3524,0.0893 2.69655,0.27664 4.02185,0.5604 -1.2116,1.86046 -2.57911,3.61458 -4.08777,5.24345 -1.9369,1.80479 -4.12521,3.56942 -6.91582,0.8261 -0.67121,-0.65984 -2.25692,-0.50839 -3.42476,-0.52376 -5.38734,-0.0708 -10.78182,-0.24298 -16.16115,-0.0399 -4.66781,0.14951 -9.31951,0.62452 -13.92121,1.42155 -0.86246,0.15486 -2.15201,3.02214 -1.75556,4.07938 0.93545,2.495 2.30006,5.24643 4.32151,6.84218 7.46997,5.89661 15.41418,11.19101 22.9186,17.04709 7.2921,5.69066 14.07948,11.92639 18.21579,20.51074 5.38927,11.18521 5.54629,22.91377 3.22219,34.69445 -3.8799,19.66629 -13.83241,35.95965 -29.94821,47.79436 -6.49379,4.76843 -14.53402,7.4746 -21.97186,10.90053 -6.54127,3.01344 -13.2746,5.60853 -19.83132,8.58994 -11.8212,5.37498 -18.46478,18.20613 -16.51051,31.54636 1.7936,12.24199 12.53344,22.45827 24.83621,24.56696 14.75793,2.53003 29.98584,-7.06078 33.59619,-22.06162 4.05979,-16.86758 -5.10505,-31.92757 -22.25945,-36.49239 -0.75538,-0.20103 -1.51363,-0.39135 -3.0894,-0.79802 4.58883,-2.0503 8.55191,-3.51103 12.21109,-5.52447 6.3832,-3.51249 12.65008,-7.23189 18.80063,-11.15819 1.80873,-1.15713 2.78597,-1.1577 4.32855,0.17588 11.79805,10.20084 18.83633,22.88965 20.80991,38.44762 3.2663,25.75207 -8.92415,49.40992 -31.91695,61.53512 -35.57267,18.76009 -79.10237,-2.59258 -86.95905,-42.03094 -6.73023,-33.78053 17.11078,-64.42263 45.80439,-70.33853 12.34041,-2.54433 23.62503,-7.68161 32.39756,-17.18509 5.66037,-6.13218 8.40426,-11.39367 9.33923,-13.76776 1.74128,-4.44926 2.63206,-9.18581 2.62607,-13.96367 -0.18797,-4.13354 -1.15911,-8.19378 -2.86185,-11.965 -2.99558,-6.82791 -14.47129,-17.68983 -17.31247,-19.98092 l -27.02209,-21.1554 c -0.95313,-0.78418 -2.02609,-0.72734 -4.35047,-0.56983 -2.76117,0.18714 -9.81964,0.57796 -12.86541,-0.22018 2.46383,-1.86462 9.18094,-4.57938 12.06537,-6.76228 -8.75652,-5.91562 -18.75141,-3.77904 -27.93025,-5.54542 2.1224,-3.95285 12.62415,-10.02713 18.597,-10.70365 -0.35407,-3.33555 -0.89784,-6.64822 -1.62866,-9.92193 -0.36461,-1.3431 -1.86375,-2.64508 -3.17162,-3.41202 -3.17123,-1.85941 -6.53297,-3.39388 -10.18057,-5.24297 3.26555,-2.11062 7.04931,-3.2811 10.93622,-3.38307 3.68197,-0.14002 7.36596,0.2189 10.95167,1.06699 6.50673,1.4867 11.70057,0.51623 16.87724,-3.90662 -4.07455,-1.64082 -8.14862,-3.13987 -12.10012,-4.91291 -3.89351,-1.77481 -7.68825,-3.75877 -11.36762,-5.94322 10.25103,1.42397 20.16622,5.26786 30.6479,3.86358 0.0892,-0.47641 0.17842,-0.95281 0.26758,-1.42918 -7.83582,-1.82389 -15.67185,-3.64779 -24.34787,-5.66731 14.51473,-1.32881 28.0277,-1.54798 40.82363,4.68457 3.6007,1.75383 7.36816,3.2055 10.81946,5.20871 1.68338,0.97704 2.81668,2.90275 4.1977,4.40016 1.0969,1.18945 1.97791,2.78299 3.32564,3.49975 5.11489,2.71996 10.74515,2.8268 16.48156,2.69053 0.0428,-0.6533 0.0831,-1.2656 0.12622,-1.92368 5.77318,1.80401 12.27093,8.46168 12.26031,13.32382 -9.35263,0 -18.69736,-0.0357 -28.04121,0.052 -0.99866,0.01 -1.99057,0.73889 -2.98555,1.13435 0.94562,0.55074 1.87493,1.54354 2.83953,1.57906 z"
     id="path1221"
     sodipodi:nodetypes="ssccccccccccssccccccccccssccscccscccccsscscccccsscccccscccccccccccccccssscccccccc"
     style="fill:#88171a;fill-opacity:1;stroke-width:0.965075" />
</svg>
